<svg xmlns="http://www.w3.org/2000/svg" xmlns:xlink="http://www.w3.org/1999/xlink" width="1920" zoomAndPan="magnify" viewBox="0 0 1440 675.000002" height="900" preserveAspectRatio="xMidYMid meet" version="1.0"><defs><clipPath id="65ce856fe6"><path d="M 359.539062 180.109375 L 367.777344 180.109375 L 367.777344 194.335938 L 359.539062 194.335938 Z M 359.539062 180.109375 " clip-rule="nonzero"/></clipPath></defs><path stroke-linecap="butt" transform="matrix(0.748891, 0, 0, 0.748891, 307.914048, -0.684937)" fill="none" stroke-linejoin="miter" d="M 68.93533 250.919859 L 24.499804 250.919859 C 11.245822 250.919859 0.500759 240.174797 0.500759 226.915599 L 0.500759 149.681553 C 0.500759 136.427571 11.245822 125.682509 24.499804 125.682509 L 526.262909 125.682509 C 539.516891 125.682509 550.261954 114.937447 550.261954 101.678249 L 550.261954 0.00179416 " stroke="#ffffff" stroke-width="1" stroke-opacity="1" stroke-miterlimit="4"/><g clip-path="url(#65ce856fe6)"><path fill="#ffffff" d="M 360.371094 194.335938 C 360.535156 194.335938 360.699219 194.273438 360.824219 194.148438 L 367.265625 187.710938 C 367.515625 187.457031 367.515625 187.050781 367.265625 186.796875 L 360.824219 180.359375 C 360.574219 180.109375 360.167969 180.109375 359.914062 180.359375 C 359.664062 180.609375 359.664062 181.019531 359.914062 181.269531 L 365.898438 187.253906 L 359.914062 193.238281 C 359.664062 193.488281 359.664062 193.898438 359.914062 194.148438 C 360.042969 194.273438 360.207031 194.335938 360.371094 194.335938 Z M 360.371094 194.335938 " fill-opacity="1" fill-rule="nonzero"/></g></svg>