<svg xmlns="http://www.w3.org/2000/svg" xmlns:xlink="http://www.w3.org/1999/xlink" width="500" zoomAndPan="magnify" viewBox="0 0 375 374.999991" height="500" preserveAspectRatio="xMidYMid meet" version="1.0"><defs><clipPath id="ebcc5b154b"><path d="M 55 73 L 320 73 L 320 364.828125 L 55 364.828125 Z M 55 73 " clip-rule="nonzero"/></clipPath><clipPath id="8d7038585d"><path d="M 0 10.078125 L 375 10.078125 L 375 198 L 0 198 Z M 0 10.078125 " clip-rule="nonzero"/></clipPath></defs><g clip-path="url(#ebcc5b154b)"><path fill="#000000" d="M 319.152344 190.402344 Z M 319.152344 190.402344 L 187.542969 73.875 L 55.851562 190.453125 L 55.851562 357.027344 C 55.851562 361.328125 59.328125 364.78125 63.632812 364.78125 L 145.929688 364.78125 L 145.929688 291.742188 C 145.929688 287.441406 149.382812 283.964844 153.6875 283.964844 L 221.308594 283.964844 C 225.613281 283.964844 229.066406 287.441406 229.066406 291.742188 L 229.066406 364.78125 L 311.390625 364.78125 C 315.691406 364.78125 319.144531 361.328125 319.144531 357.027344 L 319.144531 190.394531 Z M 55.851562 190.453125 Z M 55.851562 190.453125 " fill-opacity="1" fill-rule="nonzero"/></g><g clip-path="url(#8d7038585d)"><path fill="#000000" d="M 186.773438 10.105469 L 0 175.4375 L 19.675781 197.625 L 187.539062 49.023438 L 355.363281 197.625 L 375 175.4375 L 188.269531 10.105469 L 187.542969 10.945312 L 186.777344 10.105469 Z M 186.773438 10.105469 " fill-opacity="1" fill-rule="nonzero"/></g><path fill="#000000" d="M 55.851562 33.90625 L 103.199219 33.90625 L 102.785156 61.941406 L 55.851562 104.328125 Z M 55.851562 33.90625 " fill-opacity="1" fill-rule="nonzero"/></svg>