<svg xmlns="http://www.w3.org/2000/svg" xmlns:xlink="http://www.w3.org/1999/xlink" width="1920" zoomAndPan="magnify" viewBox="0 0 1440 675.000002" height="900" preserveAspectRatio="xMidYMid meet" version="1.0"><defs><clipPath id="3fb26c7314"><path d="M 1.066406 0 L 1438.933594 0 L 1438.933594 674 L 1.066406 674 Z M 1.066406 0 " clip-rule="nonzero"/></clipPath><clipPath id="9713862868"><path d="M 871.398438 68.746094 L 879.636719 68.746094 L 879.636719 82.976562 L 871.398438 82.976562 Z M 871.398438 68.746094 " clip-rule="nonzero"/></clipPath><clipPath id="82dd0f4f31"><path d="M 403.476562 478.027344 L 411.714844 478.027344 L 411.714844 492.253906 L 403.476562 492.253906 Z M 403.476562 478.027344 " clip-rule="nonzero"/></clipPath><clipPath id="672a8e5abc"><path d="M 712.882812 666 L 727.109375 666 L 727.109375 674 L 712.882812 674 Z M 712.882812 666 " clip-rule="nonzero"/></clipPath></defs><g clip-path="url(#3fb26c7314)"><path fill="#ffffff" d="M 1.066406 0 L 1438.933594 0 L 1438.933594 674 L 1.066406 674 Z M 1.066406 0 " fill-opacity="1" fill-rule="nonzero"/><path fill="#ffffff" d="M 1.066406 0 L 1438.933594 0 L 1438.933594 674 L 1.066406 674 Z M 1.066406 0 " fill-opacity="1" fill-rule="nonzero"/></g><path stroke-linecap="butt" transform="matrix(0.748891, 0, 0, 0.748891, 879.645404, 0.0000199704)" fill="none" stroke-linejoin="miter" d="M -0.00116553 101.300872 L 408.718048 101.300872 C 421.97203 101.300872 432.717092 90.55581 432.717092 77.301828 L 432.717092 -0.0000266667 " stroke="#000000" stroke-width="1" stroke-opacity="1" stroke-miterlimit="4"/><g clip-path="url(#9713862868)"><path fill="#000000" d="M 878.785156 68.746094 C 878.617188 68.746094 878.449219 68.808594 878.320312 68.933594 L 871.71875 75.375 C 871.460938 75.625 871.460938 76.035156 871.71875 76.285156 L 878.320312 82.726562 C 878.578125 82.976562 878.996094 82.976562 879.253906 82.726562 C 879.507812 82.472656 879.507812 82.066406 879.253906 81.816406 L 873.121094 75.832031 L 879.253906 69.847656 C 879.507812 69.59375 879.507812 69.1875 879.253906 68.9375 C 879.125 68.808594 878.953125 68.746094 878.785156 68.746094 Z M 878.785156 68.746094 " fill-opacity="1" fill-rule="nonzero"/></g><path stroke-linecap="butt" transform="matrix(0.748891, 0, 0, 0.748891, 372.664173, 75.488183)" fill="none" stroke-linejoin="miter" d="M 41.144051 179.500046 L 20.822322 179.500046 C 9.597383 179.500046 0.500593 170.403255 0.500593 159.178317 L 0.500593 24.499916 C 0.500593 11.245934 11.245655 0.500872 24.499637 0.500872 L 257.156312 0.500872 " stroke="#000000" stroke-width="1" stroke-opacity="1" stroke-miterlimit="4"/><path stroke-linecap="butt" transform="matrix(0.748891, 0, 0, 0.748891, 372.664173, 209.539408)" fill="none" stroke-linejoin="miter" d="M 41.144051 0.50028 L 20.822322 0.50028 C 9.597383 0.50028 0.500593 9.59707 0.500593 20.822009 L 0.500593 102.479265 C 0.500593 113.704204 9.597383 122.800994 20.822322 122.800994 L 41.144051 122.800994 " stroke="#000000" stroke-width="1" stroke-opacity="1" stroke-miterlimit="4"/><path stroke-linecap="butt" transform="matrix(0.748891, 0, 0, 0.748891, 369.98847, 301.130559)" fill="none" stroke-linejoin="miter" d="M 44.716941 0.498533 L 22.611322 0.498533 C 10.40055 0.498533 0.500488 10.398595 0.500488 22.609368 L 0.500488 102.555759 C 0.500488 114.766532 10.40055 124.666594 22.611322 124.666594 L 44.716941 124.666594 " stroke="#000000" stroke-width="1" stroke-opacity="1" stroke-miterlimit="4"/><path stroke-linecap="butt" transform="matrix(0.748891, 0, 0, 0.748891, 366.930862, 394.116986)" fill="none" stroke-linejoin="miter" d="M 48.799792 0.50101 L 24.498217 0.50101 C 11.244235 0.50101 0.499173 11.246072 0.499173 24.500054 L 0.499173 97.545612 C 0.499173 110.799594 11.244235 121.544656 24.498217 121.544656 L 48.799792 121.544656 " stroke="#000000" stroke-width="1" stroke-opacity="1" stroke-miterlimit="4"/><g clip-path="url(#82dd0f4f31)"><path fill="#000000" d="M 404.328125 492.253906 C 404.496094 492.253906 404.667969 492.191406 404.796875 492.066406 L 411.394531 485.625 C 411.652344 485.375 411.652344 484.96875 411.394531 484.714844 L 404.796875 478.277344 C 404.539062 478.023438 404.121094 478.023438 403.863281 478.277344 C 403.605469 478.527344 403.605469 478.9375 403.863281 479.1875 L 409.996094 485.171875 L 403.863281 491.15625 C 403.605469 491.40625 403.605469 491.816406 403.863281 492.066406 C 403.992188 492.191406 404.160156 492.253906 404.328125 492.253906 Z M 404.328125 492.253906 " fill-opacity="1" fill-rule="nonzero"/></g><g clip-path="url(#672a8e5abc)"><path fill="#000000" d="M 712.882812 666.808594 C 712.882812 666.976562 712.945312 667.144531 713.070312 667.273438 L 719.507812 673.875 C 719.761719 674.132812 720.167969 674.132812 720.421875 673.875 L 726.859375 667.273438 C 727.109375 667.015625 727.109375 666.597656 726.859375 666.339844 C 726.609375 666.082031 726.199219 666.082031 725.949219 666.339844 L 719.964844 672.472656 L 713.980469 666.339844 C 713.730469 666.082031 713.320312 666.082031 713.070312 666.339844 C 712.945312 666.46875 712.882812 666.636719 712.882812 666.808594 Z M 712.882812 666.808594 " fill-opacity="1" fill-rule="nonzero"/></g><path stroke-linecap="butt" transform="matrix(0, 0.748891, -0.748891, 0, 720.372594, 534.790805)" fill="none" stroke-linejoin="miter" d="M -0.00232624 0.497528 L 175.147403 0.497528 " stroke="#000000" stroke-width="1" stroke-opacity="1" stroke-miterlimit="4"/></svg>