<svg xmlns="http://www.w3.org/2000/svg" xmlns:xlink="http://www.w3.org/1999/xlink" width="1920" zoomAndPan="magnify" viewBox="0 0 1440 675.000002" height="900" preserveAspectRatio="xMidYMid meet" version="1.0"><defs><clipPath id="72a4b54775"><path d="M 1.066406 0 L 1438.933594 0 L 1438.933594 674 L 1.066406 674 Z M 1.066406 0 " clip-rule="nonzero"/></clipPath><clipPath id="b9acad0cf8"><path d="M 586.703125 80.5 L 596.4375 80.5 L 596.4375 97.726562 L 586.703125 97.726562 Z M 586.703125 80.5 " clip-rule="nonzero"/></clipPath><clipPath id="6fee455a77"><path d="M 849 84 L 1260 84 L 1260 674 L 849 674 Z M 849 84 " clip-rule="nonzero"/></clipPath></defs><g clip-path="url(#72a4b54775)"><path fill="#ffffff" d="M 1.066406 0 L 1438.933594 0 L 1438.933594 674 L 1.066406 674 Z M 1.066406 0 " fill-opacity="1" fill-rule="nonzero"/><path fill="#272324" d="M 1.066406 0 L 1438.933594 0 L 1438.933594 674 L 1.066406 674 Z M 1.066406 0 " fill-opacity="1" fill-rule="nonzero"/></g><path stroke-linecap="butt" transform="matrix(0.748891, 0, 0, 0.748891, 439.817266, 5.316924)" fill="none" stroke-linejoin="miter" d="M 0.499592 -0.000691342 L 0.499592 82.183386 C 0.499592 98.201874 13.48234 111.184622 29.500828 111.184622 L 194.661822 111.184622 " stroke="#ffffff" stroke-width="1" stroke-opacity="1" stroke-miterlimit="4"/><g clip-path="url(#b9acad0cf8)"><path fill="#ffffff" d="M 587.695312 97.410156 C 587.890625 97.410156 588.085938 97.335938 588.234375 97.1875 L 595.886719 89.535156 C 596.1875 89.234375 596.1875 88.75 595.886719 88.453125 L 588.234375 80.800781 C 587.9375 80.5 587.453125 80.5 587.152344 80.800781 C 586.855469 81.097656 586.855469 81.582031 587.152344 81.882812 L 594.265625 88.992188 L 587.152344 96.105469 C 586.855469 96.402344 586.855469 96.886719 587.152344 97.1875 C 587.304688 97.335938 587.5 97.410156 587.695312 97.410156 Z M 587.695312 97.410156 " fill-opacity="1" fill-rule="nonzero"/></g><g clip-path="url(#6fee455a77)"><path stroke-linecap="butt" transform="matrix(0.748891, 0, 0, 0.748891, 853.649605, 87.930369)" fill="none" stroke-linejoin="miter" d="M 0.499181 1.370911 L 0.499181 0.937978 C 0.499181 0.692824 0.697391 0.49983 0.937329 0.49983 L 507.833028 0.49983 C 515.526701 0.49983 522.902195 3.556435 528.342535 8.991559 C 533.777659 14.431899 536.834264 21.807393 536.834264 29.501066 L 536.834264 698.146462 C 536.834264 714.16495 523.851516 727.147698 507.833028 727.147698 L 495.116299 727.147698 C 487.766885 727.147698 480.714786 730.068686 475.519601 735.263871 C 470.319199 740.464272 467.398212 747.516372 467.398212 754.865785 L 467.398212 782.583873 " stroke="#ffffff" stroke-width="1" stroke-opacity="1" stroke-miterlimit="4"/></g></svg>