<svg xmlns="http://www.w3.org/2000/svg" xmlns:xlink="http://www.w3.org/1999/xlink" width="500" zoomAndPan="magnify" viewBox="0 0 375 374.999991" height="500" preserveAspectRatio="xMidYMid meet" version="1.0"><defs><clipPath id="fedc48394f"><path d="M 248.335938 165.527344 L 292.585938 165.527344 L 292.585938 209.777344 L 248.335938 209.777344 Z M 248.335938 165.527344 " clip-rule="nonzero"/></clipPath><clipPath id="26c6a4eb6a"><path d="M 165.40625 165.527344 L 209.65625 165.527344 L 209.65625 209.777344 L 165.40625 209.777344 Z M 165.40625 165.527344 " clip-rule="nonzero"/></clipPath><clipPath id="8c17a01bb5"><path d="M 209.292969 168.574219 L 209.292969 206.382812 C 209.292969 207.179688 208.976562 207.941406 208.414062 208.503906 C 207.851562 209.066406 207.089844 209.382812 206.296875 209.382812 L 168.40625 209.382812 C 167.613281 209.382812 166.847656 209.066406 166.285156 208.503906 C 165.722656 207.941406 165.40625 207.179688 165.40625 206.382812 L 165.40625 168.574219 C 165.40625 167.777344 165.722656 167.015625 166.285156 166.453125 C 166.847656 165.890625 167.613281 165.574219 168.40625 165.574219 L 206.296875 165.574219 C 207.089844 165.574219 207.851562 165.890625 208.414062 166.453125 C 208.976562 167.015625 209.292969 167.777344 209.292969 168.574219 Z M 209.292969 168.574219 " clip-rule="nonzero"/></clipPath></defs><g clip-path="url(#fedc48394f)"><path fill="#000000" d="M 275.097656 187.613281 L 291.273438 171.4375 C 291.574219 171.125 291.804688 170.769531 291.96875 170.367188 C 292.128906 169.964844 292.207031 169.546875 292.203125 169.113281 C 292.199219 168.679688 292.113281 168.261719 291.945312 167.863281 C 291.777344 167.460938 291.539062 167.109375 291.234375 166.804688 C 290.929688 166.496094 290.574219 166.257812 290.175781 166.09375 C 289.777344 165.925781 289.359375 165.839844 288.925781 165.835938 C 288.492188 165.832031 288.074219 165.910156 287.671875 166.070312 C 287.269531 166.230469 286.910156 166.460938 286.601562 166.761719 L 270.421875 182.9375 L 254.246094 166.761719 C 253.9375 166.453125 253.578125 166.214844 253.175781 166.046875 C 252.769531 165.878906 252.347656 165.792969 251.910156 165.792969 C 251.472656 165.792969 251.050781 165.878906 250.644531 166.046875 C 250.238281 166.214844 249.882812 166.453125 249.574219 166.761719 C 249.261719 167.074219 249.023438 167.429688 248.855469 167.835938 C 248.6875 168.238281 248.601562 168.660156 248.601562 169.101562 C 248.601562 169.539062 248.6875 169.960938 248.855469 170.363281 C 249.023438 170.769531 249.261719 171.128906 249.574219 171.4375 L 265.75 187.613281 L 249.535156 203.828125 C 249.0625 204.300781 248.757812 204.863281 248.628906 205.519531 C 248.496094 206.175781 248.558594 206.8125 248.816406 207.429688 C 249.070312 208.050781 249.476562 208.542969 250.035156 208.914062 C 250.589844 209.285156 251.203125 209.472656 251.871094 209.46875 C 252.71875 209.46875 253.566406 209.148438 254.210938 208.5 L 270.425781 192.289062 L 286.601562 208.464844 C 287.246094 209.109375 288.023438 209.433594 288.9375 209.429688 C 289.605469 209.429688 290.21875 209.246094 290.773438 208.875 C 291.328125 208.503906 291.734375 208.007812 291.992188 207.390625 C 292.246094 206.773438 292.308594 206.136719 292.179688 205.480469 C 292.050781 204.828125 291.75 204.261719 291.277344 203.789062 Z M 275.097656 187.613281 " fill-opacity="1" fill-rule="nonzero"/></g><g clip-path="url(#26c6a4eb6a)"><g clip-path="url(#8c17a01bb5)"><path stroke-linecap="butt" transform="matrix(0.75, 0, 0, 0.75, 165.407718, 165.57352)" fill="none" stroke-linejoin="miter" d="M 58.513672 4.000933 L 58.513672 54.412394 C 58.513672 55.474894 58.091797 56.490519 57.341797 57.240519 C 56.591797 57.990519 55.576172 58.412394 54.51888 58.412394 L 3.998043 58.412394 C 2.940752 58.412394 1.919918 57.990519 1.169918 57.240519 C 0.419918 56.490519 -0.00195685 55.474894 -0.00195685 54.412394 L -0.00195685 4.000933 C -0.00195685 2.938432 0.419918 1.922807 1.169918 1.172807 C 1.919918 0.422807 2.940752 0.000932297 3.998043 0.000932297 L 54.51888 0.000932297 C 55.576172 0.000932297 56.591797 0.422807 57.341797 1.172807 C 58.091797 1.922807 58.513672 2.938432 58.513672 4.000933 Z M 58.513672 4.000933 " stroke="#000000" stroke-width="14" stroke-opacity="1" stroke-miterlimit="4"/></g></g><path stroke-linecap="butt" transform="matrix(0.75, 0, 0, 0.75, 82.479873, 203.470943)" fill="none" stroke-linejoin="miter" d="M 0.000794755 4.002285 L 58.52684 4.002285 " stroke="#000000" stroke-width="8" stroke-opacity="1" stroke-miterlimit="4"/></svg>