<svg xmlns="http://www.w3.org/2000/svg" xmlns:xlink="http://www.w3.org/1999/xlink" width="1920" zoomAndPan="magnify" viewBox="0 0 1440 675.000002" height="900" preserveAspectRatio="xMidYMid meet" version="1.0"><defs><clipPath id="fef163f136"><path d="M 1.066406 0 L 1438.933594 0 L 1438.933594 674 L 1.066406 674 Z M 1.066406 0 " clip-rule="nonzero"/></clipPath><clipPath id="3e6575815a"><path d="M 434.414062 667.75 L 445.648438 667.75 L 445.648438 673.738281 L 434.414062 673.738281 Z M 434.414062 667.75 " clip-rule="nonzero"/></clipPath></defs><g clip-path="url(#fef163f136)"><path fill="#ffffff" d="M 1.066406 0 L 1438.933594 0 L 1438.933594 674 L 1.066406 674 Z M 1.066406 0 " fill-opacity="1" fill-rule="nonzero"/><path fill="#ffffff" d="M 1.066406 0 L 1438.933594 0 L 1438.933594 674 L 1.066406 674 Z M 1.066406 0 " fill-opacity="1" fill-rule="nonzero"/></g><path stroke-linecap="butt" transform="matrix(0.748891, 0, 0, 0.748891, 439.74995, 0.0000199704)" fill="none" stroke-linejoin="miter" d="M 0.500807 891.652354 L 0.500807 841.353987 C 0.500807 825.340715 13.483555 812.352752 29.502043 812.352752 L 563.562928 812.352752 C 579.5762 812.352752 592.558948 799.370004 592.558948 783.356732 L 592.558948 -0.0000266667 " stroke="#000000" stroke-width="1" stroke-opacity="1" stroke-miterlimit="4"/><g clip-path="url(#3e6575815a)"><path fill="#000000" d="M 434.414062 668.371094 C 434.414062 668.492188 434.464844 668.617188 434.5625 668.710938 L 439.644531 673.503906 C 439.84375 673.691406 440.167969 673.691406 440.363281 673.503906 L 445.449219 668.710938 C 445.648438 668.523438 445.648438 668.21875 445.449219 668.03125 C 445.25 667.84375 444.929688 667.84375 444.730469 668.03125 L 440.003906 672.484375 L 435.28125 668.03125 C 435.082031 667.84375 434.761719 667.84375 434.5625 668.03125 C 434.464844 668.125 434.414062 668.246094 434.414062 668.371094 Z M 434.414062 668.371094 " fill-opacity="1" fill-rule="nonzero"/></g></svg>