<svg xmlns="http://www.w3.org/2000/svg" xmlns:xlink="http://www.w3.org/1999/xlink" width="100" zoomAndPan="magnify" viewBox="0 0 75 44.999999" height="60" preserveAspectRatio="xMidYMid meet" version="1.0"><defs><clipPath id="defa30dbdf"><path d="M 3.726562 3.417969 L 74.683594 3.417969 L 74.683594 42.558594 L 3.726562 42.558594 Z M 3.726562 3.417969 " clip-rule="nonzero"/></clipPath></defs><g clip-path="url(#defa30dbdf)"><path fill="#000000" d="M 45.0625 3.566406 C 42.84375 3.707031 40.1875 4.148438 37.722656 4.785156 C 28.1875 7.253906 20.667969 12.507812 11.226562 23.296875 C 6.878906 28.265625 4.8125 31.121094 4.121094 33.128906 C 3.957031 33.613281 3.917969 33.859375 3.914062 34.4375 C 3.914062 35.601562 4.257812 36.308594 5.359375 37.398438 C 6.3125 38.34375 7.332031 38.699219 8.828125 38.597656 C 10.527344 38.488281 12.316406 37.757812 13.816406 36.570312 C 14.425781 36.085938 14.75 35.964844 14.835938 36.1875 C 14.902344 36.359375 14.625 36.894531 14.128906 37.546875 C 12.996094 39.050781 11.34375 40.179688 10.035156 40.34375 C 9.285156 40.4375 9.164062 40.476562 9.195312 40.621094 C 9.253906 40.925781 10.070312 41.238281 10.8125 41.238281 C 12.078125 41.242188 14.339844 40.476562 17.746094 38.898438 C 18.730469 38.441406 18.804688 38.417969 18.96875 38.527344 C 19.066406 38.585938 19.65625 38.929688 20.277344 39.285156 C 23.054688 40.871094 24.296875 41.085938 31.585938 41.238281 C 33.601562 41.277344 35.867188 41.324219 36.617188 41.34375 C 37.367188 41.359375 37.984375 41.355469 37.984375 41.335938 C 37.984375 41.3125 37.433594 40.730469 36.761719 40.042969 C 35.070312 38.316406 34.347656 37.332031 33.574219 35.691406 C 31.226562 30.738281 31.738281 24.378906 34.917969 19 C 36.09375 17.011719 38.042969 15.015625 40.078125 13.710938 C 44.523438 10.867188 49.863281 10.199219 54.910156 11.863281 C 55.902344 12.191406 57.875 13.175781 58.742188 13.78125 C 62.703125 16.542969 64.761719 20.796875 64.132812 24.941406 C 63.84375 26.863281 63.160156 28.207031 61.761719 29.59375 C 60.074219 31.261719 58.144531 32.046875 55.726562 32.042969 C 51.152344 32.035156 47.34375 29.824219 46.582031 26.734375 C 46.445312 26.179688 46.460938 25.089844 46.621094 24.496094 C 46.996094 23.074219 48.035156 21.640625 49.101562 21.074219 C 49.789062 20.710938 50.339844 20.578125 51.152344 20.585938 C 52.492188 20.597656 53.34375 20.839844 55.152344 21.726562 C 56.449219 22.359375 57.371094 22.929688 57.820312 23.382812 C 57.976562 23.539062 58.125 23.667969 58.144531 23.667969 C 58.3125 23.667969 57.992188 21.953125 57.617188 20.863281 C 56.640625 17.996094 53.660156 16.167969 49.683594 15.992188 C 46.523438 15.851562 43.453125 16.917969 41.40625 18.875 C 38.144531 21.988281 37.4375 27.074219 39.628906 31.65625 C 41.042969 34.609375 43.617188 37.050781 46.847656 38.5 C 52.726562 41.128906 60.386719 40.863281 65.894531 37.832031 C 70.210938 35.457031 72.476562 31.75 73 26.210938 C 73.15625 24.566406 73 22.074219 72.625 20.265625 C 71.664062 15.652344 69.46875 11.886719 66.222656 9.289062 C 61.144531 5.222656 53.121094 3.050781 45.0625 3.566406 M 99.664062 4.578125 C 99.542969 4.59375 99.019531 4.640625 98.507812 4.683594 C 95.496094 4.953125 91.550781 6.09375 88.695312 7.527344 C 83.121094 10.316406 79.21875 15.113281 77.980469 20.695312 C 76.574219 27.011719 77.957031 32.730469 81.820312 36.609375 C 84.339844 39.136719 87.566406 40.621094 91.847656 41.214844 C 93.171875 41.398438 96.390625 41.398438 97.644531 41.214844 C 101.238281 40.683594 104.253906 39.492188 106.785156 37.605469 C 107.617188 36.984375 109.046875 35.570312 109.644531 34.777344 C 111.148438 32.773438 111.925781 30.816406 112.136719 28.488281 C 112.289062 26.8125 112.011719 24.894531 111.386719 23.277344 C 110.21875 20.257812 107.300781 17.988281 103.605469 17.230469 C 102.582031 17.019531 100.515625 16.964844 99.515625 17.117188 C 98.035156 17.34375 96.769531 17.804688 95.699219 18.496094 C 94.074219 19.550781 93.136719 20.808594 92.574219 22.699219 C 92.230469 23.839844 92.195312 24.054688 92.324219 24.230469 C 92.425781 24.367188 92.441406 24.367188 92.867188 24.148438 C 93.109375 24.023438 93.753906 23.648438 94.300781 23.316406 C 96.101562 22.222656 97.449219 21.738281 98.878906 21.671875 C 100.40625 21.601562 101.410156 21.992188 102.472656 23.066406 C 103.226562 23.832031 103.675781 24.578125 103.890625 25.421875 C 104.351562 27.210938 103.742188 28.929688 102.105469 30.496094 C 100.851562 31.695312 99.253906 32.523438 97.195312 33.050781 C 94.769531 33.675781 92.828125 33.550781 90.988281 32.648438 C 88.707031 31.53125 87.171875 29.457031 86.566406 26.65625 C 86.359375 25.707031 86.375 23.527344 86.597656 22.523438 C 87.289062 19.378906 89.121094 16.691406 91.9375 14.679688 C 96.589844 11.355469 103.199219 11.03125 108.765625 13.847656 C 112.355469 15.664062 115.0625 18.480469 116.664062 22.0625 C 117.710938 24.40625 118.222656 26.28125 118.460938 28.628906 C 118.792969 31.949219 118.03125 35.285156 116.3125 38.023438 C 115.660156 39.066406 115.324219 39.476562 113.5625 41.378906 C 113.140625 41.835938 112.796875 42.246094 112.796875 42.296875 C 112.796875 42.367188 113.632812 42.375 116.40625 42.335938 C 124.273438 42.222656 126.789062 41.964844 128.984375 41.046875 C 129.335938 40.898438 130.101562 40.464844 130.683594 40.082031 L 131.742188 39.390625 L 133.25 40.121094 C 134.980469 40.964844 136.179688 41.425781 137.492188 41.761719 C 138.875 42.113281 140.664062 42.167969 141.046875 41.871094 C 141.183594 41.765625 141.179688 41.757812 141.011719 41.613281 C 140.914062 41.53125 140.527344 41.367188 140.152344 41.25 C 138.890625 40.859375 137.953125 40.273438 136.945312 39.261719 C 136.113281 38.429688 135.707031 37.691406 135.828125 37.238281 L 135.878906 37.046875 L 136.476562 37.5 C 137.503906 38.273438 139.433594 39.230469 140.914062 39.699219 C 142.453125 40.183594 143.730469 39.800781 145.085938 38.441406 C 145.65625 37.867188 145.824219 37.640625 146.117188 37.050781 C 146.457031 36.359375 146.683594 35.554688 146.683594 35.035156 C 146.683594 33.96875 145.75 32.125 144.121094 29.96875 C 143.082031 28.585938 141.804688 27.105469 139.539062 24.640625 C 138.914062 23.964844 137.835938 22.785156 137.140625 22.027344 C 129.5 13.671875 123.210938 9.15625 115.789062 6.699219 C 112.253906 5.527344 108.734375 4.839844 105.054688 4.605469 C 103.964844 4.535156 100.203125 4.515625 99.664062 4.578125 M 27.246094 20.152344 C 26.726562 20.242188 26.296875 20.53125 25.558594 21.28125 C 24.851562 22.003906 24.351562 22.65625 24.257812 22.976562 C 24.183594 23.226562 24.484375 23.484375 24.972656 23.589844 C 25.195312 23.640625 25.765625 23.695312 26.238281 23.71875 C 27.261719 23.769531 27.949219 23.636719 28.496094 23.289062 C 28.960938 22.988281 29.632812 22.265625 30.121094 21.535156 C 30.4375 21.0625 30.507812 20.90625 30.488281 20.6875 C 30.460938 20.355469 30.257812 20.242188 29.539062 20.148438 C 28.964844 20.074219 27.679688 20.074219 27.246094 20.152344 M 120.503906 21.214844 C 120.1875 21.296875 119.976562 21.527344 119.976562 21.78125 C 119.976562 22.148438 120.445312 22.871094 121.136719 23.558594 C 122.230469 24.65625 123.140625 24.996094 124.8125 24.929688 C 126.246094 24.867188 126.5 24.597656 126.042969 23.617188 C 125.742188 22.976562 125.238281 22.277344 124.78125 21.867188 C 124.386719 21.511719 123.953125 21.339844 123.121094 21.207031 C 122.523438 21.109375 120.859375 21.117188 120.503906 21.214844 M 8.28125 31.542969 C 7.03125 31.875 6.636719 32.089844 6.636719 32.425781 C 6.636719 32.46875 6.796875 32.574219 6.992188 32.664062 C 7.273438 32.792969 7.492188 32.824219 8.058594 32.828125 C 8.902344 32.828125 9.429688 32.675781 9.816406 32.308594 C 10.109375 32.035156 10.152344 31.777344 9.945312 31.523438 C 9.730469 31.257812 9.328125 31.265625 8.28125 31.542969 M 140.347656 32.75 C 140.097656 32.929688 140.238281 33.128906 140.796875 33.394531 C 141.753906 33.847656 142.882812 33.953125 143.507812 33.648438 C 143.90625 33.453125 143.941406 33.230469 143.597656 33.066406 C 143.132812 32.847656 142.394531 32.710938 141.449219 32.667969 C 140.65625 32.636719 140.488281 32.648438 140.347656 32.75 " fill-opacity="1" fill-rule="evenodd"/></g></svg>