<svg xmlns="http://www.w3.org/2000/svg" xmlns:xlink="http://www.w3.org/1999/xlink" width="100" zoomAndPan="magnify" viewBox="0 0 75 44.999999" height="60" preserveAspectRatio="xMidYMid meet" version="1.0"><defs><clipPath id="702bcb911f"><path d="M 0 2.300781 L 75 2.300781 L 75 45 L 0 45 Z M 0 2.300781 " clip-rule="nonzero"/></clipPath><clipPath id="6f2e29c03d"><path d="M 0.203125 1.417969 L 71.273438 1.417969 L 71.273438 40.558594 L 0.203125 40.558594 Z M 0.203125 1.417969 " clip-rule="nonzero"/></clipPath><clipPath id="7c50a22111"><path d="M 0 1.417969 L 0.203125 1.417969 L 0.203125 40.558594 L 0 40.558594 Z M 0 1.417969 " clip-rule="nonzero"/></clipPath><clipPath id="d836d66b90"><rect x="0" width="75" y="0" height="43"/></clipPath></defs><g clip-path="url(#702bcb911f)"><g transform="matrix(1, 0, 0, 1, 0, 2)"><g clip-path="url(#d836d66b90)"><g clip-path="url(#6f2e29c03d)"><path fill="#000000" d="M 29.9375 1.566406 C 32.152344 1.707031 34.8125 2.148438 37.277344 2.785156 C 46.808594 5.253906 54.332031 10.507812 63.773438 21.296875 C 68.121094 26.265625 70.1875 29.121094 70.875 31.128906 C 71.042969 31.613281 71.082031 31.859375 71.082031 32.4375 C 71.085938 33.601562 70.742188 34.308594 69.640625 35.398438 C 68.683594 36.34375 67.664062 36.699219 66.167969 36.597656 C 64.472656 36.488281 62.683594 35.757812 61.183594 34.570312 C 60.570312 34.085938 60.25 33.964844 60.160156 34.1875 C 60.09375 34.359375 60.375 34.894531 60.867188 35.546875 C 62.003906 37.050781 63.652344 38.179688 64.960938 38.34375 C 65.710938 38.4375 65.832031 38.476562 65.804688 38.621094 C 65.746094 38.925781 64.925781 39.238281 64.183594 39.238281 C 62.921875 39.242188 60.660156 38.476562 57.25 36.898438 C 56.265625 36.441406 56.195312 36.417969 56.027344 36.527344 C 55.933594 36.585938 55.34375 36.929688 54.71875 37.285156 C 51.945312 38.871094 50.699219 39.085938 43.414062 39.238281 C 41.394531 39.277344 39.132812 39.324219 38.378906 39.34375 C 37.628906 39.359375 37.015625 39.355469 37.015625 39.335938 C 37.015625 39.3125 37.566406 38.730469 38.238281 38.042969 C 39.929688 36.316406 40.648438 35.332031 41.425781 33.691406 C 43.773438 28.738281 43.257812 22.378906 40.078125 17 C 38.90625 15.011719 36.957031 13.015625 34.921875 11.710938 C 30.476562 8.867188 25.132812 8.199219 20.085938 9.863281 C 19.09375 10.191406 17.125 11.175781 16.253906 11.78125 C 12.292969 14.542969 10.238281 18.796875 10.863281 22.941406 C 11.152344 24.863281 11.839844 26.207031 13.238281 27.59375 C 14.921875 29.261719 16.855469 30.046875 19.273438 30.042969 C 23.847656 30.035156 27.65625 27.824219 28.417969 24.734375 C 28.554688 24.179688 28.535156 23.089844 28.378906 22.496094 C 28 21.074219 26.960938 19.640625 25.894531 19.074219 C 25.207031 18.710938 24.65625 18.578125 23.84375 18.585938 C 22.507812 18.597656 21.652344 18.839844 19.847656 19.726562 C 18.550781 20.359375 17.628906 20.929688 17.179688 21.382812 C 17.019531 21.539062 16.875 21.667969 16.851562 21.667969 C 16.683594 21.667969 17.007812 19.953125 17.378906 18.863281 C 18.359375 15.996094 21.335938 14.167969 25.316406 13.992188 C 28.476562 13.851562 31.546875 14.917969 33.59375 16.875 C 36.851562 19.988281 37.558594 25.074219 35.367188 29.65625 C 33.957031 32.609375 31.382812 35.050781 28.152344 36.5 C 22.273438 39.128906 14.613281 38.863281 9.101562 35.832031 C 4.789062 33.457031 2.523438 29.75 1.996094 24.210938 C 1.839844 22.566406 2 20.074219 2.375 18.265625 C 3.335938 13.652344 5.527344 9.886719 8.773438 7.289062 C 13.855469 3.222656 21.875 1.050781 29.9375 1.566406 M -24.667969 2.578125 C -24.542969 2.59375 -24.023438 2.640625 -23.507812 2.683594 C -20.5 2.953125 -16.550781 4.09375 -13.695312 5.527344 C -8.125 8.316406 -4.21875 13.113281 -2.980469 18.695312 C -1.578125 25.011719 -2.957031 30.730469 -6.824219 34.609375 C -9.339844 37.136719 -12.570312 38.621094 -16.851562 39.214844 C -18.175781 39.398438 -21.390625 39.398438 -22.648438 39.214844 C -26.242188 38.683594 -29.257812 37.492188 -31.785156 35.605469 C -32.617188 34.984375 -34.050781 33.570312 -34.648438 32.777344 C -36.152344 30.773438 -36.925781 28.816406 -37.136719 26.488281 C -37.289062 24.8125 -37.015625 22.894531 -36.386719 21.277344 C -35.222656 18.257812 -32.304688 15.988281 -28.605469 15.230469 C -27.582031 15.019531 -25.519531 14.964844 -24.515625 15.117188 C -23.039062 15.34375 -21.773438 15.804688 -20.699219 16.496094 C -19.078125 17.550781 -18.140625 18.808594 -17.574219 20.699219 C -17.234375 21.839844 -17.199219 22.054688 -17.328125 22.230469 C -17.429688 22.367188 -17.445312 22.367188 -17.871094 22.148438 C -18.109375 22.023438 -18.757812 21.648438 -19.304688 21.316406 C -21.105469 20.222656 -22.449219 19.738281 -23.882812 19.671875 C -25.40625 19.601562 -26.414062 19.992188 -27.472656 21.066406 C -28.226562 21.832031 -28.679688 22.578125 -28.894531 23.421875 C -29.351562 25.210938 -28.746094 26.929688 -27.105469 28.496094 C -25.851562 29.695312 -24.253906 30.523438 -22.199219 31.050781 C -19.769531 31.675781 -17.832031 31.550781 -15.992188 30.648438 C -13.707031 29.53125 -12.175781 27.457031 -11.566406 24.65625 C -11.359375 23.707031 -11.378906 21.527344 -11.597656 20.523438 C -12.292969 17.378906 -14.125 14.691406 -16.9375 12.679688 C -21.589844 9.355469 -28.203125 9.03125 -33.769531 11.847656 C -37.355469 13.664062 -40.0625 16.480469 -41.664062 20.0625 C -42.710938 22.40625 -43.226562 24.28125 -43.460938 26.628906 C -43.792969 29.949219 -43.035156 33.285156 -41.316406 36.023438 C -40.660156 37.066406 -40.324219 37.476562 -38.5625 39.378906 C -38.140625 39.835938 -37.796875 40.246094 -37.796875 40.296875 C -37.796875 40.367188 -38.636719 40.375 -41.40625 40.335938 C -49.277344 40.222656 -51.789062 39.964844 -53.988281 39.046875 C -54.335938 38.898438 -55.101562 38.464844 -55.683594 38.082031 L -56.746094 37.390625 L -58.25 38.121094 C -59.980469 38.964844 -61.179688 39.425781 -62.492188 39.761719 C -63.875 40.113281 -65.667969 40.167969 -66.050781 39.871094 C -66.183594 39.765625 -66.183594 39.757812 -66.011719 39.613281 C -65.914062 39.53125 -65.527344 39.367188 -65.152344 39.25 C -63.894531 38.859375 -62.957031 38.273438 -61.945312 37.261719 C -61.113281 36.429688 -60.707031 35.691406 -60.828125 35.238281 L -60.878906 35.046875 L -61.476562 35.5 C -62.507812 36.273438 -64.4375 37.230469 -65.914062 37.699219 C -67.457031 38.183594 -68.734375 37.800781 -70.085938 36.441406 C -70.65625 35.867188 -70.824219 35.640625 -71.117188 35.050781 C -71.460938 34.359375 -71.683594 33.554688 -71.683594 33.035156 C -71.6875 31.96875 -70.753906 30.125 -69.125 27.96875 C -68.082031 26.585938 -66.808594 25.105469 -64.542969 22.640625 C -63.917969 21.964844 -62.835938 20.785156 -62.140625 20.027344 C -54.5 11.671875 -48.210938 7.15625 -40.789062 4.699219 C -37.253906 3.527344 -33.734375 2.839844 -30.054688 2.605469 C -28.964844 2.535156 -25.203125 2.515625 -24.667969 2.578125 M 47.75 18.152344 C 48.273438 18.242188 48.703125 18.53125 49.4375 19.28125 C 50.144531 20.003906 50.648438 20.65625 50.742188 20.976562 C 50.8125 21.226562 50.511719 21.484375 50.027344 21.589844 C 49.804688 21.640625 49.234375 21.695312 48.761719 21.71875 C 47.734375 21.769531 47.050781 21.636719 46.503906 21.289062 C 46.039062 20.988281 45.367188 20.265625 44.878906 19.535156 C 44.558594 19.0625 44.492188 18.90625 44.511719 18.6875 C 44.539062 18.355469 44.742188 18.242188 45.460938 18.148438 C 46.035156 18.074219 47.316406 18.074219 47.75 18.152344 M -45.503906 19.214844 C -45.1875 19.296875 -44.980469 19.527344 -44.980469 19.78125 C -44.980469 20.148438 -45.449219 20.871094 -46.136719 21.558594 C -47.234375 22.65625 -48.144531 22.996094 -49.816406 22.929688 C -51.25 22.867188 -51.5 22.597656 -51.042969 21.617188 C -50.742188 20.976562 -50.238281 20.277344 -49.78125 19.867188 C -49.390625 19.511719 -48.953125 19.339844 -48.121094 19.207031 C -47.523438 19.109375 -45.859375 19.117188 -45.503906 19.214844 M 66.714844 29.542969 C 67.96875 29.875 68.363281 30.089844 68.363281 30.425781 C 68.363281 30.46875 68.203125 30.574219 68.007812 30.664062 C 67.722656 30.792969 67.507812 30.824219 66.941406 30.828125 C 66.09375 30.828125 65.570312 30.675781 65.179688 30.308594 C 64.886719 30.035156 64.847656 29.777344 65.050781 29.523438 C 65.265625 29.257812 65.667969 29.265625 66.714844 29.542969 M -65.347656 30.75 C -65.101562 30.929688 -65.242188 31.128906 -65.796875 31.394531 C -66.757812 31.847656 -67.882812 31.953125 -68.507812 31.648438 C -68.910156 31.453125 -68.941406 31.230469 -68.597656 31.066406 C -68.136719 30.847656 -67.398438 30.710938 -66.453125 30.667969 C -65.65625 30.636719 -65.492188 30.648438 -65.347656 30.75 " fill-opacity="1" fill-rule="evenodd"/></g><g clip-path="url(#7c50a22111)"><path fill="#000000" d="M -29.53125 1.566406 C -31.75 1.707031 -34.40625 2.148438 -36.871094 2.785156 C -46.40625 5.253906 -53.925781 10.507812 -63.367188 21.296875 C -67.714844 26.265625 -69.78125 29.121094 -70.472656 31.128906 C -70.636719 31.613281 -70.675781 31.859375 -70.675781 32.4375 C -70.679688 33.601562 -70.335938 34.308594 -69.234375 35.398438 C -68.28125 36.34375 -67.261719 36.699219 -65.765625 36.597656 C -64.066406 36.488281 -62.277344 35.757812 -60.777344 34.570312 C -60.167969 34.085938 -59.84375 33.964844 -59.757812 34.1875 C -59.691406 34.359375 -59.96875 34.894531 -60.464844 35.546875 C -61.597656 37.050781 -63.25 38.179688 -64.558594 38.34375 C -65.308594 38.4375 -65.429688 38.476562 -65.398438 38.621094 C -65.339844 38.925781 -64.523438 39.238281 -63.78125 39.238281 C -62.515625 39.242188 -60.253906 38.476562 -56.847656 36.898438 C -55.863281 36.441406 -55.789062 36.417969 -55.625 36.527344 C -55.527344 36.585938 -54.9375 36.929688 -54.316406 37.285156 C -51.539062 38.871094 -50.292969 39.085938 -43.007812 39.238281 C -40.992188 39.277344 -38.726562 39.324219 -37.976562 39.34375 C -37.226562 39.359375 -36.609375 39.355469 -36.609375 39.335938 C -36.609375 39.3125 -37.160156 38.730469 -37.832031 38.042969 C -39.523438 36.316406 -40.246094 35.332031 -41.019531 33.691406 C -43.367188 28.738281 -42.855469 22.378906 -39.675781 17 C -38.5 15.011719 -36.550781 13.015625 -34.515625 11.710938 C -30.070312 8.867188 -24.726562 8.199219 -19.679688 9.863281 C -18.691406 10.191406 -16.71875 11.175781 -15.847656 11.78125 C -11.890625 14.542969 -9.832031 18.796875 -10.460938 22.941406 C -10.75 24.863281 -11.433594 26.207031 -12.832031 27.59375 C -14.519531 29.261719 -16.449219 30.046875 -18.867188 30.042969 C -23.441406 30.035156 -27.25 27.824219 -28.011719 24.734375 C -28.148438 24.179688 -28.128906 23.089844 -27.972656 22.496094 C -27.597656 21.074219 -26.554688 19.640625 -25.492188 19.074219 C -24.804688 18.710938 -24.253906 18.578125 -23.4375 18.585938 C -22.101562 18.597656 -21.25 18.839844 -19.441406 19.726562 C -18.144531 20.359375 -17.222656 20.929688 -16.773438 21.382812 C -16.617188 21.539062 -16.46875 21.667969 -16.449219 21.667969 C -16.277344 21.667969 -16.601562 19.953125 -16.972656 18.863281 C -17.953125 15.996094 -20.933594 14.167969 -24.910156 13.992188 C -28.070312 13.851562 -31.140625 14.917969 -33.1875 16.875 C -36.449219 19.988281 -37.15625 25.074219 -34.964844 29.65625 C -33.550781 32.609375 -30.976562 35.050781 -27.746094 36.5 C -21.867188 39.128906 -14.207031 38.863281 -8.699219 35.832031 C -4.382812 33.457031 -2.117188 29.75 -1.59375 24.210938 C -1.4375 22.566406 -1.59375 20.074219 -1.96875 18.265625 C -2.929688 13.652344 -5.121094 9.886719 -8.367188 7.289062 C -13.449219 3.222656 -21.472656 1.050781 -29.53125 1.566406 M 25.070312 2.578125 C 24.949219 2.59375 24.425781 2.640625 23.914062 2.683594 C 20.902344 2.953125 16.957031 4.09375 14.101562 5.527344 C 8.53125 8.316406 4.625 13.113281 3.386719 18.695312 C 1.984375 25.011719 3.363281 30.730469 7.226562 34.609375 C 9.746094 37.136719 12.972656 38.621094 17.253906 39.214844 C 18.578125 39.398438 21.796875 39.398438 23.050781 39.214844 C 26.644531 38.683594 29.660156 37.492188 32.191406 35.605469 C 33.023438 34.984375 34.453125 33.570312 35.050781 32.777344 C 36.558594 30.773438 37.332031 28.816406 37.542969 26.488281 C 37.695312 24.8125 37.417969 22.894531 36.792969 21.277344 C 35.625 18.257812 32.707031 15.988281 29.011719 15.230469 C 27.988281 15.019531 25.921875 14.964844 24.921875 15.117188 C 23.445312 15.34375 22.175781 15.804688 21.105469 16.496094 C 19.480469 17.550781 18.542969 18.808594 17.980469 20.699219 C 17.636719 21.839844 17.601562 22.054688 17.730469 22.230469 C 17.832031 22.367188 17.847656 22.367188 18.273438 22.148438 C 18.515625 22.023438 19.160156 21.648438 19.707031 21.316406 C 21.507812 20.222656 22.855469 19.738281 24.285156 19.671875 C 25.8125 19.601562 26.816406 19.992188 27.878906 21.066406 C 28.632812 21.832031 29.082031 22.578125 29.296875 23.421875 C 29.757812 25.210938 29.148438 26.929688 27.511719 28.496094 C 26.257812 29.695312 24.660156 30.523438 22.601562 31.050781 C 20.175781 31.675781 18.234375 31.550781 16.394531 30.648438 C 14.113281 29.53125 12.582031 27.457031 11.972656 24.65625 C 11.765625 23.707031 11.78125 21.527344 12.003906 20.523438 C 12.695312 17.378906 14.527344 14.691406 17.34375 12.679688 C 21.996094 9.355469 28.605469 9.03125 34.171875 11.847656 C 37.761719 13.664062 40.46875 16.480469 42.070312 20.0625 C 43.117188 22.40625 43.628906 24.28125 43.867188 26.628906 C 44.199219 29.949219 43.4375 33.285156 41.71875 36.023438 C 41.066406 37.066406 40.730469 37.476562 38.96875 39.378906 C 38.546875 39.835938 38.203125 40.246094 38.203125 40.296875 C 38.203125 40.367188 39.039062 40.375 41.8125 40.335938 C 49.679688 40.222656 52.195312 39.964844 54.390625 39.046875 C 54.742188 38.898438 55.507812 38.464844 56.089844 38.082031 L 57.148438 37.390625 L 58.65625 38.121094 C 60.386719 38.964844 61.585938 39.425781 62.898438 39.761719 C 64.28125 40.113281 66.070312 40.167969 66.453125 39.871094 C 66.589844 39.765625 66.585938 39.757812 66.417969 39.613281 C 66.320312 39.53125 65.933594 39.367188 65.558594 39.25 C 64.300781 38.859375 63.359375 38.273438 62.351562 37.261719 C 61.519531 36.429688 61.113281 35.691406 61.234375 35.238281 L 61.285156 35.046875 L 61.882812 35.5 C 62.910156 36.273438 64.839844 37.230469 66.320312 37.699219 C 67.859375 38.183594 69.136719 37.800781 70.492188 36.441406 C 71.0625 35.867188 71.230469 35.640625 71.523438 35.050781 C 71.863281 34.359375 72.089844 33.554688 72.089844 33.035156 C 72.089844 31.96875 71.160156 30.125 69.53125 27.96875 C 68.488281 26.585938 67.210938 25.105469 64.945312 22.640625 C 64.320312 21.964844 63.242188 20.785156 62.546875 20.027344 C 54.90625 11.671875 48.617188 7.15625 41.195312 4.699219 C 37.660156 3.527344 34.140625 2.839844 30.460938 2.605469 C 29.371094 2.535156 25.609375 2.515625 25.070312 2.578125 M -47.347656 18.152344 C -47.867188 18.242188 -48.296875 18.53125 -49.03125 19.28125 C -49.742188 20.003906 -50.242188 20.65625 -50.335938 20.976562 C -50.410156 21.226562 -50.109375 21.484375 -49.621094 21.589844 C -49.398438 21.640625 -48.828125 21.695312 -48.355469 21.71875 C -47.332031 21.769531 -46.644531 21.636719 -46.097656 21.289062 C -45.632812 20.988281 -44.960938 20.265625 -44.472656 19.535156 C -44.15625 19.0625 -44.085938 18.90625 -44.105469 18.6875 C -44.132812 18.355469 -44.335938 18.242188 -45.054688 18.148438 C -45.628906 18.074219 -46.910156 18.074219 -47.347656 18.152344 M 45.910156 19.214844 C 45.59375 19.296875 45.382812 19.527344 45.382812 19.78125 C 45.382812 20.148438 45.851562 20.871094 46.542969 21.558594 C 47.640625 22.65625 48.546875 22.996094 50.21875 22.929688 C 51.652344 22.867188 51.90625 22.597656 51.449219 21.617188 C 51.148438 20.976562 50.644531 20.277344 50.1875 19.867188 C 49.792969 19.511719 49.359375 19.339844 48.527344 19.207031 C 47.929688 19.109375 46.265625 19.117188 45.910156 19.214844 M -66.3125 29.542969 C -67.5625 29.875 -67.957031 30.089844 -67.957031 30.425781 C -67.957031 30.46875 -67.796875 30.574219 -67.601562 30.664062 C -67.320312 30.792969 -67.101562 30.824219 -66.535156 30.828125 C -65.691406 30.828125 -65.164062 30.675781 -64.777344 30.308594 C -64.484375 30.035156 -64.441406 29.777344 -64.648438 29.523438 C -64.863281 29.257812 -65.265625 29.265625 -66.3125 29.542969 M 65.753906 30.75 C 65.507812 30.929688 65.644531 31.128906 66.203125 31.394531 C 67.164062 31.847656 68.289062 31.953125 68.914062 31.648438 C 69.3125 31.453125 69.347656 31.230469 69.003906 31.066406 C 68.539062 30.847656 67.800781 30.710938 66.855469 30.667969 C 66.0625 30.636719 65.894531 30.648438 65.753906 30.75 " fill-opacity="1" fill-rule="evenodd"/></g></g></g></g></svg>