<svg xmlns="http://www.w3.org/2000/svg" xmlns:xlink="http://www.w3.org/1999/xlink" width="500" zoomAndPan="magnify" viewBox="0 0 375 187.499995" height="250" preserveAspectRatio="xMidYMid meet" version="1.0"><defs><g/><clipPath id="5d83f75873"><path d="M 64 71 L 268 71 L 268 168.128906 L 64 168.128906 Z M 64 71 " clip-rule="nonzero"/></clipPath><clipPath id="428ae576c0"><rect x="0" width="204" y="0" height="98"/></clipPath><clipPath id="d24e241ca2"><path d="M 0.0664062 84 L 327 84 L 327 88 L 0.0664062 88 Z M 0.0664062 84 " clip-rule="nonzero"/></clipPath><clipPath id="ae76b81a52"><path d="M 257 66 L 327.992188 66 L 327.992188 165 L 257 165 Z M 257 66 " clip-rule="nonzero"/></clipPath><clipPath id="d648c40162"><path d="M 257 8 L 327.992188 8 L 327.992188 105 L 257 105 Z M 257 8 " clip-rule="nonzero"/></clipPath><clipPath id="dace98d982"><path d="M 324.015625 85.148438 L 325.28125 85.148438 L 325.28125 86.410156 L 324.015625 86.410156 Z M 324.015625 85.148438 " clip-rule="nonzero"/></clipPath><clipPath id="ce8437e27d"><path d="M 324.648438 85.148438 C 324.300781 85.148438 324.015625 85.429688 324.015625 85.777344 C 324.015625 86.125 324.300781 86.410156 324.648438 86.410156 C 324.996094 86.410156 325.28125 86.125 325.28125 85.777344 C 325.28125 85.429688 324.996094 85.148438 324.648438 85.148438 Z M 324.648438 85.148438 " clip-rule="nonzero"/></clipPath><clipPath id="d15643e4cf"><path d="M 0.015625 0.148438 L 1.28125 0.148438 L 1.28125 1.410156 L 0.015625 1.410156 Z M 0.015625 0.148438 " clip-rule="nonzero"/></clipPath><clipPath id="44dac3ad82"><path d="M 0.648438 0.148438 C 0.300781 0.148438 0.015625 0.429688 0.015625 0.777344 C 0.015625 1.125 0.300781 1.410156 0.648438 1.410156 C 0.996094 1.410156 1.28125 1.125 1.28125 0.777344 C 1.28125 0.429688 0.996094 0.148438 0.648438 0.148438 Z M 0.648438 0.148438 " clip-rule="nonzero"/></clipPath><clipPath id="30bec05ce0"><rect x="0" width="2" y="0" height="2"/></clipPath><clipPath id="199a162c84"><path d="M 322.878906 84.007812 L 326.421875 84.007812 L 326.421875 87.550781 L 322.878906 87.550781 Z M 322.878906 84.007812 " clip-rule="nonzero"/></clipPath><clipPath id="a04b29090b"><path d="M 324.648438 84.007812 C 323.671875 84.007812 322.878906 84.800781 322.878906 85.777344 C 322.878906 86.757812 323.671875 87.550781 324.648438 87.550781 C 325.628906 87.550781 326.421875 86.757812 326.421875 85.777344 C 326.421875 84.800781 325.628906 84.007812 324.648438 84.007812 Z M 324.648438 84.007812 " clip-rule="nonzero"/></clipPath><clipPath id="bbbc0a01cb"><path d="M 0.878906 0.0078125 L 4.421875 0.0078125 L 4.421875 3.550781 L 0.878906 3.550781 Z M 0.878906 0.0078125 " clip-rule="nonzero"/></clipPath><clipPath id="493dddb971"><path d="M 2.648438 0.0078125 C 1.671875 0.0078125 0.878906 0.800781 0.878906 1.777344 C 0.878906 2.757812 1.671875 3.550781 2.648438 3.550781 C 3.628906 3.550781 4.421875 2.757812 4.421875 1.777344 C 4.421875 0.800781 3.628906 0.0078125 2.648438 0.0078125 Z M 2.648438 0.0078125 " clip-rule="nonzero"/></clipPath><clipPath id="25c099d13e"><rect x="0" width="5" y="0" height="4"/></clipPath><clipPath id="bed3d4e860"><rect x="0" width="328" y="0" height="169"/></clipPath></defs><g transform="matrix(1, 0, 0, 1, 27, 9)"><g clip-path="url(#bed3d4e860)"><g clip-path="url(#5d83f75873)"><g transform="matrix(1, 0, 0, 1, 64, 71)"><g clip-path="url(#428ae576c0)"><g fill="#303030" fill-opacity="1"><g transform="translate(1.724254, 76.713129)"><g><path d="M 56.09375 0 L 47.625 -38.671875 L 31.328125 3.203125 L 14.9375 -38.671875 L 6.546875 0 L 0.796875 0 L 13.5 -57.9375 L 31.328125 -11.421875 L 49.140625 -57.9375 L 61.765625 0 Z M 56.09375 0 "/></g></g></g><g fill="#303030" fill-opacity="1"><g transform="translate(64.281106, 76.713129)"><g><path d="M 38.28125 0 L 6 0 L 6 -54.34375 L 38.28125 -54.34375 L 38.28125 -49.140625 L 11.59375 -49.140625 L 11.59375 -29.8125 L 37.46875 -29.8125 L 37.46875 -24.53125 L 11.59375 -24.53125 L 11.59375 -5.1875 L 38.28125 -5.1875 Z M 38.28125 0 "/></g></g></g><g fill="#303030" fill-opacity="1"><g transform="translate(108.542284, 76.713129)"><g><path d="M 11.59375 0 L 6 0 L 6 -54.34375 L 11.59375 -54.34375 Z M 11.59375 0 "/></g></g></g><g fill="#303030" fill-opacity="1"><g transform="translate(126.118927, 76.713129)"><g><path d="M 11.59375 -5.59375 L 31 -5.59375 L 31 0 L 6 0 L 6 -54.34375 L 11.59375 -54.34375 Z M 11.59375 -5.59375 "/></g></g></g><g fill="#303030" fill-opacity="1"><g transform="translate(158.715611, 76.713129)"><g><path d="M 38.28125 0 L 6 0 L 6 -54.34375 L 38.28125 -54.34375 L 38.28125 -49.140625 L 11.59375 -49.140625 L 11.59375 -29.8125 L 37.46875 -29.8125 L 37.46875 -24.53125 L 11.59375 -24.53125 L 11.59375 -5.1875 L 38.28125 -5.1875 Z M 38.28125 0 "/></g></g></g></g></g></g><g fill="#000000" fill-opacity="1"><g transform="translate(5.445013, 76.547664)"><g><path d="M 11.578125 0 L 5.984375 0 L 5.984375 -54.328125 L 11.578125 -54.328125 L 11.578125 -28.84375 L 29.875 -54.328125 L 37.0625 -54.328125 L 17.09375 -27.15625 L 37.0625 0 L 29.875 0 L 11.578125 -25.484375 Z M 11.578125 0 "/></g></g></g><g fill="#000000" fill-opacity="1"><g transform="translate(43.307083, 76.547664)"><g><path d="M 11.578125 0 L 5.984375 0 L 5.984375 -54.328125 L 11.578125 -54.328125 Z M 11.578125 0 "/></g></g></g><g fill="#000000" fill-opacity="1"><g transform="translate(60.880189, 76.547664)"><g><path d="M 11.578125 -26.84375 L 24.203125 -26.84375 C 27.347656 -26.84375 29.929688 -27.90625 31.953125 -30.03125 C 34.035156 -32.21875 35.078125 -34.910156 35.078125 -38.109375 C 35.078125 -41.253906 34.085938 -43.863281 32.109375 -45.9375 C 30.140625 -47.957031 27.503906 -48.96875 24.203125 -48.96875 L 11.578125 -48.96875 Z M 40.671875 -37.953125 C 40.671875 -33.210938 38.988281 -29.269531 35.625 -26.125 C 32.644531 -23.351562 29.050781 -21.835938 24.84375 -21.578125 L 41.546875 0 L 34.03125 0 L 18.140625 -21.484375 L 11.578125 -21.484375 L 11.578125 0 L 5.984375 0 L 5.984375 -54.328125 L 23.40625 -54.328125 C 28.25 -54.328125 32.320312 -52.804688 35.625 -49.765625 C 38.988281 -46.578125 40.671875 -42.640625 40.671875 -37.953125 Z M 40.671875 -37.953125 "/></g></g></g><g fill="#000000" fill-opacity="1"><g transform="translate(104.333696, 76.547664)"><g><path d="M 24.359375 -13.421875 C 24.359375 -8.203125 22.550781 -4.367188 18.9375 -1.921875 C 16.0625 -0.00390625 12.46875 0.898438 8.15625 0.796875 C 6.34375 0.742188 4.742188 0.503906 3.359375 0.078125 C 1.921875 -0.296875 0.9375 -0.695312 0.40625 -1.125 L 0.40625 -7.265625 C 1.894531 -5.992188 4.101562 -5.195312 7.03125 -4.875 C 10.113281 -4.5 12.75 -4.925781 14.9375 -6.15625 C 17.5 -7.59375 18.78125 -10.015625 18.78125 -13.421875 L 18.78125 -54.328125 L 24.359375 -54.328125 Z M 24.359375 -13.421875 "/></g></g></g><g fill="#000000" fill-opacity="1"><g transform="translate(133.489073, 76.547664)"><g><path d="M 45.296875 -17.96875 C 45.296875 -12.113281 43.378906 -7.484375 39.546875 -4.078125 C 35.921875 -0.878906 31.097656 0.71875 25.078125 0.71875 C 19.015625 0.71875 14.171875 -0.878906 10.546875 -4.078125 C 6.710938 -7.484375 4.796875 -12.113281 4.796875 -17.96875 L 4.796875 -54.328125 L 10.390625 -54.328125 L 10.390625 -17.171875 C 10.390625 -13.078125 11.878906 -9.9375 14.859375 -7.75 C 17.410156 -5.832031 20.816406 -4.875 25.078125 -4.875 C 31.742188 -4.875 36.21875 -7.109375 38.5 -11.578125 C 39.300781 -13.128906 39.703125 -14.992188 39.703125 -17.171875 L 39.703125 -54.328125 L 45.296875 -54.328125 Z M 45.296875 -17.96875 "/></g></g></g><g fill="#000000" fill-opacity="1"><g transform="translate(183.572444, 76.547664)"><g><path d="M 1.59375 -49.296875 L 1.59375 -54.484375 L 33.546875 -54.484375 L 33.546875 -49.296875 L 20.375 -49.296875 L 20.375 -0.15625 L 14.78125 -0.15625 L 14.78125 -49.296875 Z M 1.59375 -49.296875 "/></g></g></g><g fill="#000000" fill-opacity="1"><g transform="translate(211.368926, 76.547664)"><g><path d="M 14.78125 -19.96875 L 34.515625 -19.96875 L 24.6875 -44.984375 Z M 48.5 0 L 42.421875 0 L 36.59375 -14.78125 L 12.703125 -14.78125 L 6.875 0 L 0.796875 0 L 24.6875 -58.078125 Z M 48.5 0 "/></g></g></g><g clip-path="url(#d24e241ca2)"><path stroke-linecap="butt" transform="matrix(1.687188, 0, 0, 1.687188, 1.909544, 84.091082)" fill="none" stroke-linejoin="miter" d="M 0.000362594 0.999451 L 191.288059 0.999451 " stroke="#000000" stroke-width="2" stroke-opacity="1" stroke-miterlimit="4"/></g><g clip-path="url(#ae76b81a52)"><path stroke-linecap="butt" transform="matrix(1.052704, -1.31849, 1.31849, 1.052704, 275.767137, 144.289232)" fill="none" stroke-linejoin="miter" d="M -0.000725455 1.000815 L 45.178747 0.99927 " stroke="#000000" stroke-width="2" stroke-opacity="1" stroke-miterlimit="4"/></g><g clip-path="url(#d648c40162)"><path stroke-linecap="butt" transform="matrix(1.067206, 1.30678, -1.30678, 1.067206, 278.393832, 26.475665)" fill="none" stroke-linejoin="miter" d="M -0.000372921 1.000548 L 44.566297 1.000012 " stroke="#000000" stroke-width="2" stroke-opacity="1" stroke-miterlimit="4"/></g><g clip-path="url(#dace98d982)"><g clip-path="url(#ce8437e27d)"><g transform="matrix(1, 0, 0, 1, 324, 85)"><g clip-path="url(#30bec05ce0)"><g clip-path="url(#d15643e4cf)"><g clip-path="url(#44dac3ad82)"><path fill="#303030" d="M 0.015625 0.148438 L 1.28125 0.148438 L 1.28125 1.410156 L 0.015625 1.410156 Z M 0.015625 0.148438 " fill-opacity="1" fill-rule="nonzero"/></g></g></g></g></g></g><g clip-path="url(#199a162c84)"><g clip-path="url(#a04b29090b)"><g transform="matrix(1, 0, 0, 1, 322, 84)"><g clip-path="url(#25c099d13e)"><g clip-path="url(#bbbc0a01cb)"><g clip-path="url(#493dddb971)"><path fill="#000000" d="M 0.878906 0.0078125 L 4.421875 0.0078125 L 4.421875 3.550781 L 0.878906 3.550781 Z M 0.878906 0.0078125 " fill-opacity="1" fill-rule="nonzero"/></g></g></g></g></g></g></g></g></svg>