<svg xmlns="http://www.w3.org/2000/svg" version="1.1" xmlns:xlink="http://www.w3.org/1999/xlink" width="2000" height="2000"><svg xmlns="http://www.w3.org/2000/svg" xmlns:xlink="http://www.w3.org/1999/xlink" width="2000" zoomAndPan="magnify" viewBox="0 0 1500 1499.999933" height="2000" preserveAspectRatio="xMidYMid meet" version="1.0"><defs><clipPath id="SvgjsClipPath1175"><path d="M 50 560 L 750.101562 560 L 750.101562 945 L 50 945 Z M 50 560 " clip-rule="nonzero"></path></clipPath><clipPath id="SvgjsClipPath1174"><path d="M 750.101562 560 L 1450 560 L 1450 945 L 750.101562 945 Z M 750.101562 560 " clip-rule="nonzero"></path></clipPath></defs><g clip-path="url(#c397679c00)"><path fill="#000000" d="M 456.507812 561.34375 C 434.625 562.742188 408.375 567.113281 384.03125 573.40625 C 289.910156 597.765625 215.636719 649.648438 122.421875 756.179688 C 79.488281 805.21875 59.097656 833.4375 52.28125 853.253906 C 50.644531 858.039062 50.265625 860.46875 50.25 866.15625 C 50.214844 877.648438 53.617188 884.640625 64.488281 895.414062 C 73.925781 904.757812 83.984375 908.253906 98.761719 907.265625 C 115.527344 906.171875 133.199219 898.972656 147.992188 887.230469 C 154.03125 882.429688 157.222656 881.238281 158.082031 883.445312 C 158.734375 885.148438 155.984375 890.4375 151.105469 896.890625 C 139.902344 911.714844 123.597656 922.855469 110.679688 924.492188 C 103.273438 925.429688 102.082031 925.8125 102.371094 927.226562 C 102.957031 930.246094 111.03125 933.3125 118.355469 933.328125 C 130.828125 933.359375 153.171875 925.8125 186.8125 910.222656 C 196.539062 905.710938 197.253906 905.488281 198.890625 906.535156 C 199.84375 907.140625 205.660156 910.507812 211.808594 914.035156 C 239.21875 929.703125 251.503906 931.835938 323.457031 933.3125 C 343.367188 933.710938 365.726562 934.1875 373.144531 934.359375 C 380.550781 934.519531 386.621094 934.488281 386.621094 934.28125 C 386.621094 934.058594 381.1875 928.324219 374.542969 921.519531 C 357.859375 904.46875 350.738281 894.746094 343.082031 878.570312 C 319.914062 829.640625 324.964844 766.859375 356.367188 713.734375 C 367.949219 694.125 387.210938 674.390625 407.3125 661.519531 C 451.183594 633.441406 503.941406 626.859375 553.773438 643.277344 C 563.5625 646.519531 583.011719 656.242188 591.609375 662.234375 C 630.71875 689.46875 651.007812 731.484375 644.828125 772.402344 C 641.96875 791.394531 635.199219 804.660156 621.40625 818.328125 C 604.75 834.820312 585.683594 842.5625 561.800781 842.527344 C 516.652344 842.464844 479.042969 820.632812 471.507812 790.121094 C 470.15625 784.65625 470.347656 773.867188 471.90625 768.019531 C 475.625 753.953125 485.890625 739.8125 496.410156 734.234375 C 503.195312 730.644531 508.644531 729.339844 516.671875 729.402344 C 529.875 729.515625 538.296875 731.914062 556.140625 740.652344 C 568.949219 746.929688 578.039062 752.554688 582.488281 757.019531 C 584.046875 758.578125 585.492188 759.851562 585.699219 759.851562 C 587.367188 759.851562 584.1875 742.910156 580.503906 732.136719 C 570.824219 703.820312 541.425781 685.785156 502.144531 684.035156 C 470.9375 682.652344 440.617188 693.203125 420.40625 712.511719 C 388.226562 743.246094 381.25 793.457031 402.878906 838.699219 C 416.828125 867.875 442.253906 891.980469 474.128906 906.265625 C 532.179688 932.246094 607.820312 929.609375 662.226562 899.671875 C 704.816406 876.25 727.203125 839.621094 732.386719 784.957031 C 733.925781 768.699219 732.371094 744.117188 728.652344 726.257812 C 719.179688 680.683594 697.519531 643.515625 665.46875 617.867188 C 615.304688 577.695312 536.105469 556.273438 456.507812 561.34375 M 995.660156 571.339844 C 994.453125 571.484375 989.289062 571.960938 984.21875 572.402344 C 954.503906 575.042969 915.539062 586.324219 887.335938 600.449219 C 832.320312 628.019531 793.769531 675.375 781.535156 730.484375 C 767.679688 792.871094 781.3125 849.328125 819.464844 887.609375 C 844.335938 912.558594 876.210938 927.210938 918.480469 933.089844 C 931.558594 934.917969 963.324219 934.902344 975.71875 933.074219 C 1011.203125 927.84375 1040.980469 916.085938 1065.960938 897.460938 C 1074.175781 891.328125 1088.304688 877.34375 1094.199219 869.511719 C 1109.058594 849.757812 1116.714844 830.421875 1118.796875 807.441406 C 1120.292969 790.867188 1117.574219 771.957031 1111.394531 755.988281 C 1099.871094 726.160156 1071.0625 703.773438 1034.5625 696.273438 C 1024.453125 694.191406 1004.066406 693.632812 994.183594 695.144531 C 979.578125 697.398438 967.074219 701.929688 956.492188 708.777344 C 940.457031 719.167969 931.207031 731.613281 925.632812 750.253906 C 922.261719 761.519531 921.914062 763.664062 923.183594 765.394531 C 924.183594 766.746094 924.34375 766.730469 928.539062 764.570312 C 930.921875 763.347656 937.292969 759.660156 942.699219 756.371094 C 960.480469 745.546875 973.765625 740.765625 987.90625 740.128906 C 1002.953125 739.429688 1012.902344 743.308594 1023.375 753.90625 C 1030.8125 761.453125 1035.261719 768.828125 1037.390625 777.15625 C 1041.917969 794.824219 1035.929688 811.796875 1019.734375 827.257812 C 1007.355469 839.082031 991.59375 847.28125 971.285156 852.492188 C 947.304688 858.640625 928.15625 857.402344 909.996094 848.503906 C 887.445312 837.476562 872.316406 816.992188 866.3125 789.359375 C 864.261719 779.96875 864.4375 758.453125 866.613281 748.535156 C 873.460938 717.5 891.5625 690.933594 919.355469 671.085938 C 965.277344 638.269531 1030.558594 635.046875 1085.523438 662.871094 C 1120.957031 680.808594 1147.671875 708.601562 1163.480469 743.976562 C 1173.828125 767.113281 1178.894531 785.640625 1181.230469 808.824219 C 1184.519531 841.605469 1177.003906 874.53125 1160.035156 901.59375 C 1153.582031 911.890625 1150.261719 915.945312 1132.875 934.710938 C 1128.714844 939.207031 1125.3125 943.292969 1125.3125 943.769531 C 1125.3125 944.453125 1133.574219 944.53125 1160.957031 944.148438 C 1238.644531 943.035156 1263.464844 940.496094 1285.15625 931.421875 C 1288.621094 929.976562 1296.167969 925.699219 1301.921875 921.917969 L 1312.394531 915.070312 L 1327.25 922.300781 C 1344.347656 930.625 1356.1875 935.1875 1369.15625 938.492188 C 1382.804688 941.957031 1400.476562 942.496094 1404.257812 939.574219 C 1405.589844 938.539062 1405.574219 938.460938 1403.890625 937.03125 C 1402.9375 936.21875 1399.109375 934.597656 1395.40625 933.4375 C 1382.980469 929.5625 1373.714844 923.808594 1363.734375 913.8125 C 1355.535156 905.582031 1351.515625 898.289062 1352.707031 893.824219 L 1353.214844 891.933594 L 1359.113281 896.398438 C 1369.28125 904.058594 1388.335938 913.511719 1402.921875 918.121094 C 1418.144531 922.917969 1430.761719 919.121094 1444.125 905.710938 C 1449.75 900.054688 1451.421875 897.8125 1454.296875 891.964844 C 1457.679688 885.132812 1459.90625 877.21875 1459.90625 872.070312 C 1459.921875 861.550781 1450.707031 843.339844 1434.625 822.03125 C 1424.34375 808.410156 1411.742188 793.777344 1389.367188 769.449219 C 1383.203125 762.757812 1372.539062 751.125 1365.675781 743.625 C 1290.226562 661.121094 1228.140625 616.5625 1154.851562 592.285156 C 1119.957031 580.714844 1085.203125 573.929688 1048.863281 571.625 C 1038.105469 570.925781 1000.96875 570.734375 995.660156 571.339844 M 280.613281 725.113281 C 275.464844 726.003906 271.222656 728.847656 263.960938 736.253906 C 256.96875 743.386719 252.011719 749.839844 251.089844 753.015625 C 250.375 755.480469 253.347656 758.023438 258.160156 759.070312 C 260.355469 759.546875 265.980469 760.121094 270.652344 760.34375 C 280.773438 760.835938 287.542969 759.53125 292.929688 756.082031 C 297.523438 753.144531 304.164062 745.976562 308.980469 738.792969 C 312.125 734.089844 312.792969 732.550781 312.601562 730.390625 C 312.332031 727.148438 310.332031 726.003906 303.242188 725.097656 C 297.570312 724.367188 284.90625 724.367188 280.613281 725.113281 M 1201.398438 735.601562 C 1198.28125 736.441406 1196.214844 738.683594 1196.214844 741.195312 C 1196.214844 744.847656 1200.839844 751.953125 1207.65625 758.769531 C 1218.480469 769.605469 1227.457031 772.945312 1243.96875 772.277344 C 1258.125 771.6875 1260.621094 769.019531 1256.09375 759.339844 C 1253.121094 753 1248.164062 746.089844 1243.632812 742.035156 C 1239.757812 738.539062 1235.464844 736.839844 1227.25 735.539062 C 1221.339844 734.582031 1204.910156 734.632812 1201.398438 735.601562 M 93.359375 837.585938 C 81.011719 840.875 77.101562 842.972656 77.101562 846.328125 C 77.101562 846.722656 78.691406 847.773438 80.617188 848.648438 C 83.410156 849.917969 85.558594 850.25 91.152344 850.265625 C 99.492188 850.300781 104.691406 848.757812 108.519531 845.152344 C 111.410156 842.433594 111.824219 839.90625 109.789062 837.394531 C 107.675781 834.789062 103.703125 834.835938 93.359375 837.585938 M 1397.328125 849.519531 C 1394.898438 851.300781 1396.28125 853.253906 1401.777344 855.859375 C 1411.25 860.34375 1422.371094 861.375 1428.539062 858.371094 C 1432.496094 856.449219 1432.828125 854.238281 1429.425781 852.621094 C 1424.851562 850.457031 1417.574219 849.109375 1408.230469 848.710938 C 1400.394531 848.375 1398.742188 848.503906 1397.328125 849.519531 " fill-opacity="1" fill-rule="evenodd"></path></g><g clip-path="url(#55407265ed)"><path fill="#000000" d="M 1043.699219 561.34375 C 1065.578125 562.742188 1091.832031 567.113281 1116.175781 573.40625 C 1210.296875 597.765625 1284.570312 649.648438 1377.78125 756.179688 C 1420.71875 805.21875 1441.105469 833.4375 1447.925781 853.253906 C 1449.5625 858.039062 1449.941406 860.46875 1449.957031 866.15625 C 1449.988281 877.648438 1446.589844 884.640625 1435.71875 895.414062 C 1426.28125 904.757812 1416.222656 908.253906 1401.445312 907.265625 C 1384.679688 906.171875 1367.007812 898.972656 1352.214844 887.230469 C 1346.175781 882.429688 1342.984375 881.238281 1342.125 883.445312 C 1341.472656 885.148438 1344.222656 890.4375 1349.101562 896.890625 C 1360.304688 911.714844 1376.605469 922.855469 1389.527344 924.492188 C 1396.929688 925.429688 1398.125 925.8125 1397.835938 927.226562 C 1397.25 930.246094 1389.175781 933.3125 1381.851562 933.328125 C 1369.375 933.359375 1347.035156 925.8125 1313.394531 910.222656 C 1303.667969 905.710938 1302.953125 905.488281 1301.316406 906.535156 C 1300.363281 907.140625 1294.546875 910.507812 1288.398438 914.035156 C 1260.988281 929.703125 1248.703125 931.835938 1176.75 933.3125 C 1156.839844 933.710938 1134.480469 934.1875 1127.0625 934.359375 C 1119.65625 934.519531 1113.585938 934.488281 1113.585938 934.28125 C 1113.585938 934.058594 1119.019531 928.324219 1125.664062 921.519531 C 1142.347656 904.46875 1149.464844 894.746094 1157.125 878.570312 C 1180.292969 829.640625 1175.242188 766.859375 1143.839844 713.734375 C 1132.257812 694.125 1112.996094 674.390625 1092.894531 661.519531 C 1049.023438 633.441406 996.265625 626.859375 946.433594 643.277344 C 936.644531 646.519531 917.191406 656.242188 908.597656 662.234375 C 869.488281 689.46875 849.195312 731.484375 855.378906 772.402344 C 858.238281 791.394531 865.007812 804.660156 878.800781 818.328125 C 895.453125 834.820312 914.523438 842.5625 938.40625 842.527344 C 983.550781 842.464844 1021.164062 820.632812 1028.699219 790.121094 C 1030.046875 784.65625 1029.859375 773.867188 1028.300781 768.019531 C 1024.582031 753.953125 1014.316406 739.8125 1003.796875 734.234375 C 997.011719 730.644531 991.5625 729.339844 983.535156 729.402344 C 970.332031 729.515625 961.910156 731.914062 944.0625 740.652344 C 931.257812 746.929688 922.167969 752.554688 917.71875 757.019531 C 916.160156 758.578125 914.714844 759.851562 914.507812 759.851562 C 912.839844 759.851562 916.015625 742.910156 919.703125 732.136719 C 929.382812 703.820312 958.777344 685.785156 998.0625 684.035156 C 1029.269531 682.652344 1059.589844 693.203125 1079.800781 712.511719 C 1111.980469 743.246094 1118.957031 793.457031 1097.328125 838.699219 C 1083.378906 867.875 1057.953125 891.980469 1026.074219 906.265625 C 968.027344 932.246094 892.386719 929.609375 837.976562 899.671875 C 795.390625 876.25 773 839.621094 767.820312 784.957031 C 766.28125 768.699219 767.835938 744.117188 771.554688 726.257812 C 781.027344 680.683594 802.683594 643.515625 834.738281 617.867188 C 884.902344 577.695312 964.101562 556.273438 1043.699219 561.34375 M 504.546875 571.339844 C 505.753906 571.484375 510.917969 571.960938 515.988281 572.402344 C 545.703125 575.042969 584.664062 586.324219 612.871094 600.449219 C 667.886719 628.019531 706.4375 675.375 718.671875 730.484375 C 732.527344 792.871094 718.894531 849.328125 680.742188 887.609375 C 655.871094 912.558594 623.996094 927.210938 581.726562 933.089844 C 568.648438 934.917969 536.882812 934.902344 524.488281 933.074219 C 489.003906 927.84375 459.226562 916.085938 434.246094 897.460938 C 426.03125 891.328125 411.902344 877.34375 406.007812 869.511719 C 391.148438 849.757812 383.492188 830.421875 381.410156 807.441406 C 379.914062 790.867188 382.632812 771.957031 388.8125 755.988281 C 400.335938 726.160156 429.144531 703.773438 465.644531 696.273438 C 475.75 694.191406 496.140625 693.632812 506.023438 695.144531 C 520.625 697.398438 533.132812 701.929688 543.714844 708.777344 C 559.75 719.167969 568.996094 731.613281 574.574219 750.253906 C 577.945312 761.519531 578.292969 763.664062 577.023438 765.394531 C 576.023438 766.746094 575.863281 766.730469 571.667969 764.570312 C 569.285156 763.347656 562.910156 759.660156 557.507812 756.371094 C 539.726562 745.546875 526.441406 740.765625 512.300781 740.128906 C 497.25 739.429688 487.304688 743.308594 476.832031 753.90625 C 469.394531 761.453125 464.945312 768.828125 462.816406 777.15625 C 458.289062 794.824219 464.277344 811.796875 480.472656 827.257812 C 492.851562 839.082031 508.613281 847.28125 528.921875 852.492188 C 552.902344 858.640625 572.050781 857.402344 590.210938 848.503906 C 612.761719 837.476562 627.886719 816.992188 633.894531 789.359375 C 635.945312 779.96875 635.769531 758.453125 633.59375 748.535156 C 626.746094 717.5 608.644531 690.933594 580.851562 671.085938 C 534.929688 638.269531 469.648438 635.046875 414.683594 662.871094 C 379.246094 680.808594 352.535156 708.601562 336.722656 743.976562 C 326.378906 767.113281 321.3125 785.640625 318.976562 808.824219 C 315.683594 841.605469 323.203125 874.53125 340.171875 901.59375 C 346.625 911.890625 349.945312 915.945312 367.328125 934.710938 C 371.492188 939.207031 374.894531 943.292969 374.894531 943.769531 C 374.894531 944.453125 366.628906 944.53125 339.25 944.148438 C 261.5625 943.035156 236.742188 940.496094 215.050781 931.421875 C 211.585938 929.976562 204.039062 925.699219 198.285156 921.917969 L 187.8125 915.070312 L 172.957031 922.300781 C 155.859375 930.625 144.019531 935.1875 131.050781 938.492188 C 117.402344 941.957031 99.730469 942.496094 95.949219 939.574219 C 94.613281 938.539062 94.632812 938.460938 96.316406 937.03125 C 97.269531 936.21875 101.097656 934.597656 104.800781 933.4375 C 117.226562 929.5625 126.492188 923.808594 136.472656 913.8125 C 144.671875 905.582031 148.691406 898.289062 147.5 893.824219 L 146.992188 891.933594 L 141.09375 896.398438 C 130.925781 904.058594 111.871094 913.511719 97.285156 918.121094 C 82.0625 922.917969 69.445312 919.121094 56.082031 905.710938 C 50.453125 900.054688 48.785156 897.8125 45.910156 891.964844 C 42.527344 885.132812 40.300781 877.21875 40.300781 872.070312 C 40.285156 861.550781 49.5 843.339844 65.582031 822.03125 C 75.863281 808.410156 88.464844 793.777344 110.839844 769.449219 C 117.003906 762.757812 127.667969 751.125 134.53125 743.625 C 209.980469 661.121094 272.066406 616.5625 345.351562 592.285156 C 380.25 580.714844 415 573.929688 451.34375 571.625 C 462.101562 570.925781 499.238281 570.734375 504.546875 571.339844 M 1219.59375 725.113281 C 1224.742188 726.003906 1228.984375 728.847656 1236.246094 736.253906 C 1243.238281 743.386719 1248.195312 749.839844 1249.117188 753.015625 C 1249.832031 755.480469 1246.859375 758.023438 1242.046875 759.070312 C 1239.851562 759.546875 1234.226562 760.121094 1229.554688 760.34375 C 1219.433594 760.835938 1212.664062 759.53125 1207.277344 756.082031 C 1202.683594 753.144531 1196.042969 745.976562 1191.226562 738.792969 C 1188.082031 734.089844 1187.414062 732.550781 1187.605469 730.390625 C 1187.875 727.148438 1189.875 726.003906 1196.964844 725.097656 C 1202.636719 724.367188 1215.300781 724.367188 1219.59375 725.113281 M 298.808594 735.601562 C 301.925781 736.441406 303.988281 738.683594 303.988281 741.195312 C 303.988281 744.847656 299.367188 751.953125 292.546875 758.769531 C 281.726562 769.605469 272.75 772.945312 256.238281 772.277344 C 242.078125 771.6875 239.585938 769.019531 244.113281 759.339844 C 247.085938 753 252.042969 746.089844 256.570312 742.035156 C 260.449219 738.539062 264.738281 736.839844 272.957031 735.539062 C 278.867188 734.582031 295.296875 734.632812 298.808594 735.601562 M 1406.847656 837.585938 C 1419.195312 840.875 1423.101562 842.972656 1423.101562 846.328125 C 1423.101562 846.722656 1421.515625 847.773438 1419.589844 848.648438 C 1416.792969 849.917969 1414.648438 850.25 1409.054688 850.265625 C 1400.714844 850.300781 1395.515625 848.757812 1391.6875 845.152344 C 1388.796875 842.433594 1388.382812 839.90625 1390.417969 837.394531 C 1392.53125 834.789062 1396.503906 834.835938 1406.847656 837.585938 M 102.878906 849.519531 C 105.308594 851.300781 103.925781 853.253906 98.429688 855.859375 C 88.957031 860.34375 77.835938 861.375 71.667969 858.371094 C 67.710938 856.449219 67.378906 854.238281 70.777344 852.621094 C 75.355469 850.457031 82.632812 849.109375 91.976562 848.710938 C 99.8125 848.375 101.464844 848.503906 102.878906 849.519531 " fill-opacity="1" fill-rule="evenodd"></path></g></svg><style>@media (prefers-color-scheme: light) { :root { filter: none; } }
@media (prefers-color-scheme: dark) { :root { filter: none; } }
</style></svg>